<?xml version="1.0" encoding="UTF-8"?>
<svg width="71px" height="62px" viewBox="0 0 71 62" version="1.1" xmlns="http://www.w3.org/2000/svg" xmlns:xlink="http://www.w3.org/1999/xlink">
    <title>Icon 24px</title>
    <defs>
        <filter x="-22.6%" y="-32.5%" width="145.3%" height="165.0%" filterUnits="objectBoundingBox" id="filter-1">
            <feOffset dx="0" dy="2" in="SourceAlpha" result="shadowOffsetOuter1"></feOffset>
            <feGaussianBlur stdDeviation="2" in="shadowOffsetOuter1" result="shadowBlurOuter1"></feGaussianBlur>
            <feColorMatrix values="0 0 0 0 0   0 0 0 0 0   0 0 0 0 0  0 0 0 0.5 0" type="matrix" in="shadowBlurOuter1" result="shadowMatrixOuter1"></feColorMatrix>
            <feMerge>
                <feMergeNode in="shadowMatrixOuter1"></feMergeNode>
                <feMergeNode in="SourceGraphic"></feMergeNode>
            </feMerge>
        </filter>
    </defs>
    <g id="Sprint-26" stroke="none" stroke-width="1" fill="none" fill-rule="evenodd">
        <g id="CBG-1131-Map-View---Start-Copy-2" transform="translate(-224.000000, -481.000000)">
            <g id="design">
                <g id="body" transform="translate(86.000000, 64.000000)">
                    <g id="map" transform="translate(0.000000, 93.500000)">
                        <g id="notifications" filter="url(#filter-1)" transform="translate(147.000000, 334.500000)">
                            <g id="Icon-24px">
                                <polygon id="Shape" transform="translate(18.550000, 21.491525) rotate(-60.000000) translate(-18.550000, -21.491525) " points="5.30940217 8.23609708 31.7649106 8.26178428 31.7905978 34.7469538 5.33508936 34.7212666"></polygon>
                                <path d="M24.5555556,16.0833333 C24.5555556,15.4875 24.0555556,15 23.4444444,15 L10.1111111,15 C9.5,15 9,15.4875 9,16.0833333 L9,26.9166667 C9,27.5125 9.5,28 10.1111111,28 L23.4444444,28 C24.0555556,28 24.5555556,27.5125 24.5555556,26.9166667 L24.5555556,23.125 L29,27.4583333 L29,15.5416667 L24.5555556,19.875 L24.5555556,16.0833333 Z" id="Shape" fill="#000000"></path>
                                <polygon id="Triangle" stroke="#000000" transform="translate(40.500000, 20.000000) rotate(-90.000000) translate(-40.500000, -20.000000) " points="40.5 8 60 32 21 32"></polygon>
                            </g>
                        </g>
                    </g>
                </g>
            </g>
        </g>
    </g>
</svg>